<svg xmlns="http://www.w3.org/2000/svg" data-name="图层 1" viewBox="0 0 40 40" width="40" height="40"
    id="silver-seed" y="3600">
    <title>silver-seed</title>
    <g data-name="1">
        <path
            d="M26.2 10.6C19.9 5.4 14.3 3.7 11 5.2 7.5 6.9 4.7 16 6.4 23.5c1.6 7.1 6.9 11.8 12.5 11.8 5.1 0 12.7-4.7 14.7-9 1.6-4.9-.7-10.2-7.4-15.7z"
            fill="#add2f6" />
        <path
            d="M1.8 24.6C-.3 15.1 3.2 3.7 9 1c5.4-2.5 12.7 0 20.1 6C37 13.4 40.5 20.7 38 28c-2.6 6.1-12.1 12-19.1 12-7.7 0-15-6.1-17.1-15.4zm24.4-14C19.9 5.4 14.3 3.7 11 5.2 7.5 6.9 4.7 16 6.4 23.5c1.6 7.1 6.9 11.8 12.5 11.8 5.1 0 12.7-4.7 14.7-9 1.6-4.9-.7-10.2-7.4-15.7z"
            fill="#70b0ee" />
        <path
            d="M12.3 7.1C14.5 10.3 23.1 27 24.7 30a11.71 11.71 0 0 1-6.8 3c-3.7 0-8-3.5-9.3-10.2s1-14.2 3.7-15.7z"
            fill="#edfcff" />
    </g>
</svg>